<svg xmlns="http://www.w3.org/2000/svg" xmlns:xlink="http://www.w3.org/1999/xlink" width="673.974" height="600.457" viewBox="0 0 178.322 158.871">
    <defs>
        <linearGradient xlink:href="#e" id="j" gradientUnits="userSpaceOnUse" gradientTransform="translate(470.888 .8)" x1="87.646" y1="176.813" x2="379.809" y2="176.813"/>
        <linearGradient xlink:href="#a" id="i" gradientUnits="userSpaceOnUse" x1="540.467" y1="190.815" x2="832.63" y2="190.815"/>
        <linearGradient id="c">
            <stop offset="0" stop-color="#0b5aff" stop-opacity=".976"/>
            <stop offset="1" stop-color="#0052ff" stop-opacity="0"/>
        </linearGradient>
        <linearGradient id="b">
            <stop offset="0" stop-color="red"/>
            <stop offset="1" stop-color="red" stop-opacity="0"/>
        </linearGradient>
        <linearGradient xlink:href="#b" id="f" x1="70.183" y1="81.622" x2="134.817" y2="81.622" gradientUnits="userSpaceOnUse" gradientTransform="matrix(.4271 0 0 .79412 72.06 58.193)"/>
        <linearGradient xlink:href="#c" id="g" x1="70.183" y1="81.622" x2="134.817" y2="81.622" gradientUnits="userSpaceOnUse" gradientTransform="matrix(.59597 0 0 .79412 50.298 70.383)"/>
        <linearGradient xlink:href="#d" id="h" x1="70.183" y1="81.622" x2="134.817" y2="81.622" gradientUnits="userSpaceOnUse" gradientTransform="matrix(.61901 0 0 .79412 39.666 82.572)"/>
        <linearGradient id="e">
            <stop offset="0" stop-color="#b3b3b3"/>
            <stop offset="1" stop-color="#4f5050"/>
        </linearGradient>
        <linearGradient id="a">
            <stop offset="0" stop-color="#e9dadc"/>
            <stop offset="1" stop-color="#4f5050"/>
        </linearGradient>
        <linearGradient id="d">
            <stop offset="0" stop-color="#00eb00"/>
            <stop offset="1" stop-color="#07e907" stop-opacity="0"/>
        </linearGradient>
        <linearGradient xlink:href="#b" id="k" x1="70.183" y1="81.622" x2="134.817" y2="81.622" gradientUnits="userSpaceOnUse" gradientTransform="matrix(.58149 0 0 1.05882 54.953 82.666)"/>
        <linearGradient xlink:href="#c" id="l" x1="70.183" y1="81.622" x2="134.817" y2="81.622" gradientUnits="userSpaceOnUse" gradientTransform="matrix(.57847 0 0 1.05882 55.165 99.544)"/>
        <linearGradient xlink:href="#d" id="m" x1="70.183" y1="81.622" x2="134.817" y2="81.622" gradientUnits="userSpaceOnUse" gradientTransform="matrix(.46697 0 0 1.02941 62.99 118.822)"/>
        <linearGradient xlink:href="#e" id="n" gradientUnits="userSpaceOnUse" x1="87.646" y1="176.813" x2="379.809" y2="176.813"/>
        <linearGradient xlink:href="#b" id="o" x1="70.183" y1="81.622" x2="134.817" y2="81.622" gradientUnits="userSpaceOnUse" gradientTransform="matrix(.4271 0 0 .79412 46.325 11.94)"/>
        <linearGradient xlink:href="#c" id="p" x1="70.183" y1="81.622" x2="134.817" y2="81.622" gradientUnits="userSpaceOnUse" gradientTransform="matrix(.59597 0 0 .79412 24.563 24.13)"/>
        <linearGradient xlink:href="#d" id="q" x1="70.183" y1="81.622" x2="134.817" y2="81.622" gradientUnits="userSpaceOnUse" gradientTransform="matrix(.61901 0 0 .79412 13.931 36.319)"/>
    </defs>
    <path d="M102.034 117.907v10.206h14.955c.051-1.337.217-2.684.503-4.037a22.398 22.398 0 012.266-6.169z" fill="url(#f)" transform="translate(14.955 -55.726)"/>
    <path d="M92.124 130.097v10.205h21.312l4.457-4.883a22.92 22.92 0 01-.894-5.322z" fill="url(#g)" transform="translate(14.955 -55.726)"/>
    <path d="M83.11 142.287v10.205h19.2l9.315-10.205z" fill="url(#h)" transform="translate(14.955 -55.726)"/>
    <g style="line-height:1.25">
        <path d="M45.865 59.646a20.125 20.125 0 00-5.285.8c-3.542 1.02-6.634 2.922-9.22 5.674-2.776 2.956-4.615 6.51-5.477 10.587-.814 3.854-.673 7.658.402 11.343l-20.993 23h26.221l8.471-8.264c3.543 1.15 7.121 1.307 10.672.436h.001c3.828-.917 7.206-2.871 10.07-5.818l.012-.013.012-.013c2.574-2.84 4.358-6.121 5.316-9.793v-.003l.002-.003c.955-3.762 1.005-7.513.142-11.188l-.004-.017-.005-.016c-.253-.945-1.04-1.702-1.945-1.88-.837-.256-1.796.043-2.416.702h-.002l-9.942 10.443-8.16-1.405-1.32-8.686 9.81-10.583v-.002c.62-.66.9-1.681.66-2.572-.167-.962-.879-1.8-1.766-2.07l-.016-.005-.015-.004a19.156 19.156 0 00-5.225-.65z" style="line-height:1.25;font-variant-ligatures:normal;font-variant-position:normal;font-variant-caps:normal;font-variant-numeric:normal;font-variant-alternates:normal;font-feature-settings:normal;text-indent:0;text-align:start;text-decoration-line:none;text-decoration-style:solid;text-decoration-color:#000;text-transform:none;text-orientation:mixed;white-space:normal;shape-padding:0;isolation:auto;mix-blend-mode:normal;solid-color:#000;solid-opacity:1" color="#000" overflow="visible" fill="#b3b3b3" aria-label="" font-weight="400" font-size="373.333" font-family="sans-serif" letter-spacing="0" word-spacing="0"/>
    </g>
    <g style="line-height:1.25">
        <path style="line-height:1.25;font-variant-ligatures:normal;font-variant-position:normal;font-variant-caps:normal;font-variant-numeric:normal;font-variant-alternates:normal;font-feature-settings:normal;text-indent:0;text-align:start;text-decoration-line:none;text-decoration-style:solid;text-decoration-color:#000;text-transform:none;text-orientation:mixed;white-space:normal;shape-padding:0;isolation:auto;mix-blend-mode:normal;solid-color:#000;solid-opacity:1" d="M731.739 72.864c8.39-.115 16.715.87 25.011 2.935 1.834.524 1.837.542 2.09 2.315l.065.46.148.44c.43 1.289.515 1.294-.945 2.754l-.012.012-55.805 56.558 9.032 55.828 55.828 9.032 56.558-55.805.012-.012c1.46-1.46 1.465-1.375 2.754-.945l.44.148.46.065c1.773.253 1.79.256 2.315 2.09 4.137 16.619 3.916 33.346-.717 50.505-4.625 16.649-13.118 31.366-25.66 44.393-13.938 13.452-29.998 22.163-48.527 26.332l-.014.002-.014.004c-18.063 4.168-35.958 3.259-54.09-2.785l-2.873-.957-46.422 42.543H540.467L639.31 207.04l-1.023-2.988c-6.023-17.604-6.948-35.492-2.766-54.078 4.174-18.55 12.877-34.354 26.326-47.803 12.518-12.518 27.207-21.011 44.371-25.65 8.603-2.325 17.096-3.543 25.522-3.658z" color="#000" overflow="visible" fill="url(#i)" aria-label="" transform="matrix(.18828 0 0 .20042 15.126 38.531)" font-weight="400" font-size="373.333" font-family="sans-serif" letter-spacing="0" word-spacing="0"/>
    </g>
    <path d="M381.844 133.384c-.972-3.403-3.16-5.347-6.562-5.833-2.917-.972-5.59-.243-8.02 2.187l-54.688 53.959-49.584-8.021-8.02-49.584 53.958-54.687c2.43-2.43 3.16-5.104 2.187-8.02-.486-3.404-2.43-5.591-5.833-6.563-17.5-4.375-35.243-4.132-53.23.729-17.985 4.86-33.54 13.854-46.666 26.979-14.097 14.097-23.333 30.868-27.708 50.312-4.375 19.445-3.403 38.403 2.916 56.875L75.47 299.921h125.086l45.664-41.85c18.959 6.32 37.917 7.292 56.875 2.917 19.445-4.375 36.459-13.61 51.042-27.708 13.125-13.611 22.118-29.167 26.98-46.667 4.86-17.986 5.103-35.729.728-53.229z" transform="matrix(.18828 0 0 .20042 -7.108 -4.821)" aria-label="" font-weight="400" font-size="373.333" font-family="sans-serif" letter-spacing="0" word-spacing="0" fill="#333" stroke="#b3b3b3" stroke-width="10.296"/>
    <g style="line-height:1.25">
        <path d="M749.806 59.662c8.391-.115 16.715.87 25.012 2.936 1.833.524 1.836.541 2.09 2.314l.064.461.148.44c.43 1.288.515 1.294-.945 2.753l-.012.012-55.804 56.559 9.031 55.828 55.828 9.031 56.559-55.805.011-.011c1.46-1.46 1.466-1.375 2.754-.946l.44.149.46.064c1.774.254 1.791.256 2.315 2.09 4.137 16.62 3.916 33.347-.717 50.506-4.625 16.648-13.118 31.365-25.66 44.393-13.938 13.452-29.997 22.162-48.527 26.332l-.014.002-.013.004c-18.063 4.168-35.958 3.258-54.09-2.786l-2.873-.957-46.422 42.543H558.534l98.842-101.734-1.023-2.988c-6.023-17.605-6.948-35.492-2.766-54.078 4.174-18.55 12.878-34.354 26.326-47.803 12.519-12.518 27.207-21.012 44.371-25.65 8.603-2.326 17.096-3.543 25.522-3.659z" style="line-height:1.25;font-variant-ligatures:normal;font-variant-position:normal;font-variant-caps:normal;font-variant-numeric:normal;font-variant-alternates:normal;font-feature-settings:normal;text-indent:0;text-align:start;text-decoration-line:none;text-decoration-style:solid;text-decoration-color:#000;text-transform:none;text-orientation:mixed;white-space:normal;shape-padding:0;isolation:auto;mix-blend-mode:normal;solid-color:#000;solid-opacity:1" color="#000" overflow="visible" fill="url(#j)" transform="matrix(.18828 0 0 .20042 -95.23 96.986)" aria-label="" font-weight="400" font-size="373.333" font-family="sans-serif" letter-spacing="0" word-spacing="0"/>
    </g>
    <path d="M95.763 162.285v13.607h24.881c.959-3.518 2.684-6.62 5.151-9.246 1.724-1.835 3.675-3.29 5.833-4.36z" fill="url(#k)" transform="translate(14.955 -55.726)"/>
    <path d="M95.763 179.163v13.607h21.127l3.83-4.195a22.871 22.871 0 01-.728-9.412z" fill="url(#l)" transform="translate(14.955 -55.726)"/>
    <path d="M95.763 196.23v13.229h5.895l12.075-13.23z" fill="url(#m)" transform="translate(14.955 -55.726)"/>
    <g style="line-height:1.25">
        <path style="line-height:1.25;font-variant-ligatures:normal;font-variant-position:normal;font-variant-caps:normal;font-variant-numeric:normal;font-variant-alternates:normal;font-feature-settings:normal;text-indent:0;text-align:start;text-decoration-line:none;text-decoration-style:solid;text-decoration-color:#000;text-transform:none;text-orientation:mixed;white-space:normal;shape-padding:0;isolation:auto;mix-blend-mode:normal;solid-color:#000;solid-opacity:1" d="M278.918 58.861c8.391-.115 16.715.87 25.012 2.936 1.833.524 1.836.541 2.09 2.314l.064.461.148.44c.43 1.288.515 1.294-.945 2.754l-.012.011-55.804 56.559 9.031 55.828 55.828 9.031 56.559-55.804.011-.012c1.46-1.46 1.466-1.375 2.754-.945l.44.148.46.064c1.774.254 1.79.257 2.315 2.09 4.137 16.62 3.916 33.347-.717 50.506-4.625 16.648-13.118 31.365-25.66 44.393-13.938 13.452-29.997 22.163-48.527 26.332l-.014.002-.014.004c-18.062 4.168-35.957 3.259-54.09-2.785l-2.872-.957-46.422 42.543H87.646l98.842-101.735-1.023-2.988c-6.023-17.605-6.948-35.492-2.766-54.078 4.174-18.55 12.878-34.354 26.326-47.803 12.519-12.518 27.207-21.011 44.371-25.65 8.603-2.325 17.096-3.543 25.522-3.659z" color="#000" overflow="visible" fill="url(#n)" aria-label="" transform="matrix(.18828 0 0 .20042 102.764 94.708)" font-weight="400" font-size="373.333" font-family="sans-serif" letter-spacing="0" word-spacing="0"/>
    </g>
    <path fill="url(#o)" d="M76.3 71.654h27.605v10.205H76.3z" transform="translate(14.955 -55.726)"/>
    <path fill="url(#p)" d="M66.39 83.844h38.52v10.205H66.39z" transform="translate(14.955 -55.726)"/>
    <path fill="url(#q)" d="M57.376 96.033h40.009v10.205H57.376z" transform="translate(14.955 -55.726)"/>
    <path d="M381.844 133.384c-.972-3.403-3.16-5.347-6.562-5.833-2.917-.972-5.59-.243-8.02 2.187l-54.688 53.959-49.584-8.021-8.02-49.584 53.958-54.687c2.43-2.43 3.16-5.104 2.187-8.02-.486-3.404-2.43-5.591-5.833-6.563-17.5-4.375-35.243-4.132-53.23.729-17.985 4.86-33.54 13.854-46.666 26.979-14.097 14.097-23.333 30.868-27.708 50.312-4.375 19.445-3.403 38.403 2.916 56.875L75.47 299.921h125.086l45.664-41.85c18.959 6.32 37.917 7.292 56.875 2.917 19.445-4.375 36.459-13.61 51.042-27.708 13.125-13.611 22.118-29.167 26.98-46.667 4.86-17.986 5.103-35.729.728-53.229z" transform="matrix(.18828 0 0 .20042 74.204 -4.701)" aria-label="" font-weight="400" font-size="373.333" font-family="sans-serif" letter-spacing="0" word-spacing="0" fill="#333" stroke="#b3b3b3" stroke-width="10.296"/>
</svg>
