<?xml version="1.0" encoding="UTF-8"?>
<svg width="279.05" height="178.71" version="1.1" viewBox="0 0 73.832204 47.283138" xmlns="http://www.w3.org/2000/svg" xmlns:cc="http://creativecommons.org/ns#" xmlns:dc="http://purl.org/dc/elements/1.1/" xmlns:rdf="http://www.w3.org/1999/02/22-rdf-syntax-ns#" xmlns:xlink="http://www.w3.org/1999/xlink">
<defs>
<linearGradient id="e">
<stop stop-color="#e9dadc" offset="0"/>
<stop stop-color="#4f5050" offset="1"/>
</linearGradient>
<linearGradient id="d" x1="70.183" x2="134.82" y1="81.622" y2="81.622" gradientTransform="matrix(1.6142 0 0 3.0014 -41.767 -184.52)" gradientUnits="userSpaceOnUse">
<stop stop-color="#f00" offset="0"/>
<stop stop-color="#f00" stop-opacity="0" offset="1"/>
</linearGradient>
<linearGradient id="c" x1="70.183" x2="134.82" y1="81.622" y2="81.622" gradientTransform="matrix(2.2525 0 0 3.0014 -124.01 -138.45)" gradientUnits="userSpaceOnUse">
<stop stop-color="#0b5aff" stop-opacity=".97647" offset="0"/>
<stop stop-color="#0052ff" stop-opacity="0" offset="1"/>
</linearGradient>
<linearGradient id="b" x1="70.183" x2="134.82" y1="81.622" y2="81.622" gradientTransform="matrix(2.3396 0 0 3.0014 -164.2 -92.374)" gradientUnits="userSpaceOnUse">
<stop stop-color="#00eb00" offset="0"/>
<stop stop-color="#07e907" stop-opacity="0" offset="1"/>
</linearGradient>
<linearGradient id="a" x1="540.47" x2="832.63" y1="190.82" y2="190.82" gradientUnits="userSpaceOnUse" xlink:href="#e"/>
</defs>
<metadata>
<rdf:RDF>
<cc:Work rdf:about="">
<dc:format>image/svg+xml</dc:format>
<dc:type rdf:resource="http://purl.org/dc/dcmitype/StillImage"/>
<dc:title/>
</cc:Work>
</rdf:RDF>
</metadata>
<g transform="translate(-89.536 -92.227)">
<path transform="matrix(.26458 0 0 .26458 89.536 90.382)" d="m71.525 41.176v38.572h56.521c0.19421-5.0544 0.82159-10.143 1.9023-15.256 1.7695-8.3715 4.638-16.156 8.5644-23.316z" fill="url(#d)"/>
<path transform="matrix(.26458 0 0 .26458 89.536 90.382)" d="m34.07 87.248v38.57h80.549l16.846-18.457c-1.9283-6.6127-3.052-13.326-3.3809-20.113z" fill="url(#c)"/>
<path transform="matrix(.26458 0 0 .26458 89.536 90.382)" d="m0 133.32v38.572h72.568l35.205-38.572z" fill="url(#b)"/>
<g transform="matrix(.18828 0 0 .20042 6.5968 77.626)" fill="url(#a)" stroke="#fff" stroke-width="10.296" aria-label="">
<path d="m731.74 72.864c8.3912-0.11512 16.715 0.87042 25.012 2.9355 1.8337 0.52426 1.8366 0.54145 2.0898 2.3145l0.0645 0.46094 0.14844 0.43945c0.4296 1.2888 0.51457 1.294-0.94531 2.7539l-0.0117 0.01172-55.805 56.559 9.0312 55.828 55.828 9.0312 56.559-55.805 0.0117-0.0117c1.4599-1.4599 1.4651-1.3749 2.7539-0.94532l0.43945 0.14844 0.46094 0.0644c1.773 0.25329 1.7902 0.25617 2.3144 2.0898 4.1366 16.619 3.9163 33.346-0.7168 50.506-4.6255 16.648-13.119 31.365-25.66 44.393-13.938 13.452-29.998 22.163-48.527 26.332l-0.0137 2e-3 -0.0137 4e-3c-18.063 4.1683-35.958 3.2588-54.09-2.7852l-2.873-0.95703-46.422 42.543h-110.91l98.842-101.73-1.0234-2.9883c-6.0226-17.605-6.9475-35.492-2.7656-54.078 4.1736-18.549 12.877-34.354 26.326-47.803 12.518-12.518 27.207-21.011 44.371-25.65 8.6023-2.325 17.095-3.5426 25.521-3.6582z" color="#000000" color-rendering="auto" dominant-baseline="auto" fill="url(#a)" image-rendering="auto" shape-rendering="auto" solid-color="#000000" stroke="none" style="font-feature-settings:normal;font-variant-alternates:normal;font-variant-caps:normal;font-variant-ligatures:normal;font-variant-numeric:normal;font-variant-position:normal;isolation:auto;mix-blend-mode:normal;shape-padding:0;text-decoration-color:#000000;text-decoration-line:none;text-decoration-style:solid;text-indent:0;text-orientation:mixed;text-transform:none;white-space:normal"/>
</g>
</g>
</svg>
