<?xml version="1.0" encoding="UTF-8" standalone="no"?>
<!-- Created with Inkscape (http://www.inkscape.org/) -->

<svg
   xmlns:dc="http://purl.org/dc/elements/1.1/"
   xmlns:cc="http://creativecommons.org/ns#"
   xmlns:rdf="http://www.w3.org/1999/02/22-rdf-syntax-ns#"
   xmlns:svg="http://www.w3.org/2000/svg"
   xmlns="http://www.w3.org/2000/svg"
   xmlns:sodipodi="http://sodipodi.sourceforge.net/DTD/sodipodi-0.dtd"
   xmlns:inkscape="http://www.inkscape.org/namespaces/inkscape"
   width="512"
   height="512"
   viewBox="0 0 135.46667 135.46667"
   version="1.1"
   id="svg4681"
   sodipodi:docname="nwlogo-inv.svg"
   inkscape:version="0.92.4 (5da689c313, 2019-01-14)"
   inkscape:export-filename="E:\dev\proj\nw\newswrench-logo\dst\nwlogo2-512.png"
   inkscape:export-xdpi="96.000008"
   inkscape:export-ydpi="96.000008">
  <defs
     id="defs4675" />
  <sodipodi:namedview
     id="base"
     pagecolor="#ffffff"
     bordercolor="#666666"
     borderopacity="1.0"
     inkscape:pageopacity="0.0"
     inkscape:pageshadow="2"
     inkscape:zoom="0.7"
     inkscape:cx="253.93105"
     inkscape:cy="207.6872"
     inkscape:document-units="mm"
     inkscape:current-layer="layer1"
     showgrid="false"
     inkscape:window-width="1600"
     inkscape:window-height="848"
     inkscape:window-x="-8"
     inkscape:window-y="-8"
     inkscape:window-maximized="1"
     inkscape:snap-center="false"
     inkscape:snap-object-midpoints="true"
     inkscape:snap-page="true"
     units="px"
     inkscape:pagecheckerboard="false" />
  <metadata
     id="metadata4678">
    <rdf:RDF>
      <cc:Work
         rdf:about="">
        <dc:format>image/svg+xml</dc:format>
        <dc:type
           rdf:resource="http://purl.org/dc/dcmitype/StillImage" />
        <dc:title />
      </cc:Work>
    </rdf:RDF>
  </metadata>
  <g
     inkscape:groupmode="layer"
     id="layer2"
     inkscape:label="Layer 2"
     style="display:inline"
     transform="translate(-15.754646,17.142476)"
     sodipodi:insensitive="true">
    <rect
       style="fill:#000000;fill-opacity:1;stroke:none;stroke-width:10.26307297"
       id="rect4596"
       width="135.46666"
       height="135.46667"
       x="15.754646"
       y="-17.142475" />
  </g>
  <g
     inkscape:label="Layer 1"
     inkscape:groupmode="layer"
     id="layer1"
     transform="translate(-60.355762,-65.973577)"
     style="display:inline">
    <g
       aria-label=""
       transform="matrix(0.30540155,0,0,0.32508477,67.386456,55.430014)"
       style="font-style:normal;font-weight:normal;font-size:373.33334351px;line-height:1.25;font-family:sans-serif;letter-spacing:0px;word-spacing:0px;fill:#ffffff;fill-opacity:1;stroke:none"
       id="flowRoot3714">
      <path
         d="m 381.84441,133.38412 q -1.45833,-5.10417 -6.5625,-5.83334 -4.375,-1.45833 -8.02083,2.1875 l -54.6875,53.95834 -49.58334,-8.02083 -8.02083,-49.58334 53.95833,-54.6875 q 3.64584,-3.645834 2.1875,-8.020834 -0.72916,-5.104167 -5.83333,-6.5625 -26.25,-6.5625 -53.22917,0.729167 -26.97917,7.291666 -46.66667,26.979167 -21.14583,21.14583 -27.70833,50.3125 -6.5625,29.16667 2.91667,56.875 L 25.281901,347.75912 q -13.854167,13.85417 -13.854167,32.8125 0,19.68751 13.125001,32.81251 13.854167,13.85416 32.812501,13.85416 19.6875,0 33.541667,-13.85416 L 246.21941,258.07162 q 28.4375,9.47917 56.875,2.91667 29.16667,-6.5625 51.04167,-27.70834 19.6875,-20.41666 26.97916,-46.66666 7.29167,-26.97917 0.72917,-53.22917 z M 58.094402,398.07163 q -7.291667,0 -12.395833,-5.10417 -5.104167,-5.10417 -5.104167,-12.39584 0,-7.29166 5.104167,-12.39583 5.104166,-5.10417 12.395833,-5.10417 7.291667,0 12.395834,5.10417 5.104167,5.10417 5.104167,12.39583 0,7.29167 -5.104167,12.39584 -5.104167,5.10417 -12.395834,5.10417 z"
         style="font-size:373.33334351px;fill:#ffffff"
         id="path821" />
    </g>
    <path
       style="fill:#ffffff;stroke:#ffffff;stroke-width:10;stroke-linecap:butt;stroke-linejoin:miter;stroke-opacity:1"
       d="M 79.988303,121.69612 H 129.63365"
       id="path25"
       inkscape:connector-curvature="0" />
    <path
       style="display:inline;fill:#ffffff;stroke:#ffffff;stroke-width:10;stroke-linecap:butt;stroke-linejoin:miter;stroke-opacity:1"
       d="m 69.97302,145.40676 h 49.74976"
       id="path25-7"
       inkscape:connector-curvature="0" />
    <path
       style="display:inline;fill:#ffffff;stroke:#ffffff;stroke-width:10;stroke-linecap:butt;stroke-linejoin:miter;stroke-opacity:1;stroke-miterlimit:4;stroke-dasharray:none"
       d="m 69.97302,97.985492 h 66.56443"
       id="path25-0"
       inkscape:connector-curvature="0" />
  </g>
</svg>
