<?xml version="1.0" encoding="UTF-8"?>
<svg width="512" height="512" version="1.1" viewBox="0 0 135.46667 135.46667" xmlns="http://www.w3.org/2000/svg" xmlns:cc="http://creativecommons.org/ns#" xmlns:dc="http://purl.org/dc/elements/1.1/" xmlns:rdf="http://www.w3.org/1999/02/22-rdf-syntax-ns#">
<metadata>
<rdf:RDF>
<cc:Work rdf:about="">
<dc:format>image/svg+xml</dc:format>
<dc:type rdf:resource="http://purl.org/dc/dcmitype/StillImage"/>
<dc:title/>
</cc:Work>
</rdf:RDF>
</metadata>
<g transform="translate(-60.356 -65.974)">
<g transform="matrix(.3054 0 0 .32508 67.386 55.43)" aria-label="">
<path d="m381.84 133.38q-1.4583-5.1042-6.5625-5.8333-4.375-1.4583-8.0208 2.1875l-54.688 53.958-49.583-8.0208-8.0208-49.583 53.958-54.688q3.6458-3.6458 2.1875-8.0208-0.72916-5.1042-5.8333-6.5625-26.25-6.5625-53.229 0.72917-26.979 7.2917-46.667 26.979-21.146 21.146-27.708 50.312t2.9167 56.875l-155.31 156.04q-13.854 13.854-13.854 32.812 0 19.688 13.125 32.813 13.854 13.854 32.813 13.854 19.688 0 33.542-13.854l155.31-155.31q28.438 9.4792 56.875 2.9167 29.167-6.5625 51.042-27.708 19.688-20.417 26.979-46.667 7.2917-26.979 0.72917-53.229zm-323.75 264.69q-7.2917 0-12.396-5.1042-5.1042-5.1042-5.1042-12.396 0-7.2917 5.1042-12.396 5.1042-5.1042 12.396-5.1042t12.396 5.1042 5.1042 12.396q0 7.2917-5.1042 12.396t-12.396 5.1042z"/>
</g>
<path d="m79.988 121.7h49.645" stroke="#000" stroke-width="10"/>
<path d="m69.973 145.41h49.75" stroke="#000" stroke-width="10"/>
<path d="m69.973 97.985h66.564" stroke="#000" stroke-width="10"/>
</g>
</svg>
